# xmcd
#
# Track frame offsets: 
#        150
#        9709
#        31412
#        45525
#        55448
#        75478
#        111964
#        164285
#        196778
#        254036
#        273310
#
# Disc length: 4273 seconds
#
# Revision: 2
# Processed by: cddbd v1.5.2PL0 Copyright (c) Steve Scherf et al.
# Submitted via: ExactAudioCopy v1.3
#
DISCID=9110af0b
DTITLE=Royal Concertgebouw Orchestra - RCO 125 anniversary edition - Th
DTITLE=e Radio Legacy, CD 114 [1990-2000]
DYEAR=2013
DGENRE=Classical
TTITLE0=Arnold Schoenberg: Fünf Orchesterstücke (1909 - segunda versión
TTITLE0=1949), op. 16 - I. Vorgefühle. Sehr rasch
TTITLE1=Arnold Schoenberg: Fünf Orchesterstücke (1909 - segunda versión
TTITLE1=1949), op. 16 - II. Vergangenes. Mäßige Viertel
TTITLE2=Arnold Schoenberg: Fünf Orchesterstücke (1909 - segunda versión
TTITLE2=1949), op. 16 - III. Farben. Mäßige Viertel
TTITLE3=Arnold Schoenberg: Fünf Orchesterstücke (1909 - segunda versión
TTITLE3=1949), op. 16 - IV. Péripétie. Sehr rasch
TTITLE4=Arnold Schoenberg: Fünf Orchesterstücke (1909 - segunda versión
TTITLE4=1949), op. 16 - V. Das obligate Rezitativ. Bewegte Achtel
TTITLE5=Theo Loevendie: Concierto para piano (1995-1996) - I. Lento
TTITLE6=Theo Loevendie: Concierto para piano (1995-1996) - II. Molto t
TTITLE6=ranquillo
TTITLE7=Wolfgang Amadeus Mozart: Sinfonía No. 40 en Sol menor (1788), 
TTITLE7=KV. 550 - I. Molto allegro
TTITLE8=Wolfgang Amadeus Mozart: Sinfonía No. 40 en Sol menor (1788), 
TTITLE8=KV. 550 - II. Andante
TTITLE9=Wolfgang Amadeus Mozart: Sinfonía No. 40 en Sol menor (1788), 
TTITLE9=KV. 550 - III. Menuetto. Allegretto - Trio
TTITLE10=Wolfgang Amadeus Mozart: Sinfonía No. 40 en Sol menor (1788),
TTITLE10=KV. 550 - IV. Finale. Allegro assai
EXTD=
EXTT0=
EXTT1=
EXTT2=
EXTT3=
EXTT4=
EXTT5=
EXTT6=
EXTT7=
EXTT8=
EXTT9=
EXTT10=
PLAYORDER=
